<svg xmlns="http://www.w3.org/2000/svg" width="1200" height="675" viewBox="0 0 1200 675" role="img" aria-labelledby="title desc">
  <title id="title">Centralized Restic Backup and SYSmon Reporting</title>
  <desc id="desc">Professional DevOps project cover for centralized backup and recovery workflows.</desc>
  <defs>
    <pattern id="grid" width="40" height="40" patternUnits="userSpaceOnUse">
      <path d="M 40 0 L 0 0 0 40" fill="none" stroke="#12333d" stroke-width="1" />
    </pattern>
  </defs>
  <rect width="1200" height="675" fill="#101112" />
  <rect width="1200" height="675" fill="url(#grid)" />
  <rect x="20" y="20" width="1160" height="635" fill="none" stroke="#355a66" stroke-width="2" />
  <rect x="20" y="20" width="200" height="5" fill="#9cdef2" />
  <g fill="none" stroke="#355a66" stroke-width="2" opacity="0.85">
    <rect x="785" y="105" width="105" height="78" />
    <rect x="785" y="225" width="105" height="78" />
    <rect x="785" y="345" width="105" height="78" />
    <path d="M890 144 H970 M890 264 H970 M890 384 H970" />
    <rect x="970" y="170" width="145" height="200" rx="4" />
    <circle cx="1042" cy="267" r="38" />
  </g>
  <g fill="none" stroke="#9cdef2" stroke-width="3" opacity="0.75">
    <path d="M905 144 H950 V210 H970" />
    <path d="M905 264 H970" />
    <path d="M905 384 H950 V324 H970" />
    <path d="M1023 267 L1037 281 1065 249" />
  </g>
  <g fill="#9cdef2" opacity="0.7">
    <rect x="805" y="125" width="65" height="7" /><rect x="805" y="245" width="65" height="7" /><rect x="805" y="365" width="65" height="7" />
  </g>
  <text x="80" y="286" fill="#9cdef2" font-family="JetBrains Mono, monospace" font-size="28">~/projects/bpdp-restic-backup</text>
  <text x="80" y="366" fill="#e5e2e1" font-family="Space Grotesk, Arial, sans-serif" font-size="58" font-weight="700">Centralized Restic</text>
  <text x="80" y="429" fill="#e5e2e1" font-family="Space Grotesk, Arial, sans-serif" font-size="58" font-weight="700">Backup &amp; SYSmon</text>
  <text x="80" y="491" fill="#bfc8cb" font-family="JetBrains Mono, monospace" font-size="25">PROFESSIONAL  •  Restic  •  MySQL</text>
  <text x="650" y="630" fill="#355a66" font-family="JetBrains Mono, monospace" font-size="18">BACKUP // RECOVERY // 2026</text>
</svg>
